# xmcd
#
# Track frame offsets: 
#        150
#        18378
#        37512
#        54154
#        75448
#        102061
#        120017
#        140068
#        161463
#        178081
#        193650
#        216079
#        230901
#        250490
#        291599
#        309415
#        335961
#
# Disc length: 4648 seconds
#
# Revision: 0
# Processed by: cddbd v1.5.2PL0 Copyright (c) Steve Scherf et al.
# Submitted via: ExactAudioCopy v1.0b1
#
DISCID=ea122611
DTITLE=Albert King - King Albert - New Orleans Heat
DYEAR=2009
DGENRE=Modern Electric Blues
TTITLE0=Love Shock
TTITLE1=You Upset Me Babe
TTITLE2=Chump Change
TTITLE3=Let Me Rock You
TTITLE4=Boot Lace
TTITLE5=Love Mechanic
TTITLE6=Call My Job
TTITLE7=Good Time Charlie
TTITLE8=Get Out Of My Life Woman
TTITLE9=Born Under A Bad Sign
TTITLE10=The Feeling
TTITLE11=We All Wanna Boogie
TTITLE12=The Very Thought Of You
TTITLE13=I Got The Blues
TTITLE14=I Get Evil
TTITLE15=Angel Of Mercy
TTITLE16=Flat Tyre
EXTD=
EXTT0=
EXTT1=
EXTT2=
EXTT3=
EXTT4=
EXTT5=
EXTT6=
EXTT7=
EXTT8=
EXTT9=
EXTT10=
EXTT11=
EXTT12=
EXTT13=
EXTT14=
EXTT15=
EXTT16=
PLAYORDER=
